<svg xmlns="http://www.w3.org/2000/svg" viewBox="0 0 64 64">
  <defs>
    <linearGradient id="chip-bg" x1="0%" y1="0%" x2="100%" y2="100%">
      <stop offset="0%" stop-color="#0f213d" />
      <stop offset="100%" stop-color="#0a1426" />
    </linearGradient>
    <linearGradient id="core" x1="10%" y1="10%" x2="90%" y2="90%">
      <stop offset="0%" stop-color="#38d9ff" />
      <stop offset="100%" stop-color="#009dd7" />
    </linearGradient>
  </defs>

  <rect x="6" y="6" width="52" height="52" rx="12" fill="url(#chip-bg)" />
  <rect x="18" y="18" width="28" height="28" rx="7" fill="url(#core)" opacity=".2" />
  <rect x="18" y="18" width="28" height="28" rx="7" fill="none" stroke="#38d9ff" stroke-opacity=".8" stroke-width="2" />

  <path d="M24 22v15c0 4-2.5 7-7 7" fill="none" stroke="#edf3ff" stroke-width="5" stroke-linecap="round" />
  <path d="M34 24l4 14 4-14" fill="none" stroke="#edf3ff" stroke-width="5" stroke-linecap="round" stroke-linejoin="round" />

  <g stroke="#2c4a74" stroke-width="2" stroke-linecap="round">
    <path d="M12 18h4" />
    <path d="M12 26h4" />
    <path d="M12 34h4" />
    <path d="M12 42h4" />
    <path d="M48 18h4" />
    <path d="M48 26h4" />
    <path d="M48 34h4" />
    <path d="M48 42h4" />
  </g>
</svg>
